<svg xmlns="http://www.w3.org/2000/svg" xmlns:xlink="http://www.w3.org/1999/xlink" width="156.488" height="156.488" viewBox="0 0 156.488 156.488">
  <defs>
    <linearGradient id="linear-gradient" y1="0.5" x2="1" y2="0.5" gradientUnits="objectBoundingBox">
      <stop offset="0"/>
      <stop offset="1" stop-color="#25201b"/>
    </linearGradient>
    <linearGradient id="linear-gradient-2" x1="1" y1="0.5" x2="0" y2="0.5" xlink:href="#linear-gradient"/>
  </defs>
  <g id="Group_2245" data-name="Group 2245" transform="translate(-6312.756 -4597.512)">
    <g id="Group_2240" data-name="Group 2240">
      <circle id="Ellipse_141" data-name="Ellipse 141" cx="78.244" cy="78.244" r="78.244" transform="translate(6312.756 4597.512)" fill="url(#linear-gradient)"/>
      <path id="Path_1214" data-name="Path 1214" d="M6468.078,4680.33c0,43.582-39.129,73.67-77.078,73.67-29.532,0-52.963-14.624-68.624-40.629-13.173-21.875,31.38-28.445,78.177-28.445S6468.078,4633.532,6468.078,4680.33Z" fill="url(#linear-gradient-2)"/>
    </g>
    <g id="Group_2244" data-name="Group 2244">
      <g id="Group_2243" data-name="Group 2243">
        <path id="Path_1215" data-name="Path 1215" d="M6336.78,4652.772c-.367-.794,0-1.4.856-1.4h3.3a1.2,1.2,0,0,1,1.1.733l4.094,13.5h.062l6.538-14.236a1.15,1.15,0,0,1,1.038-.612h.367a1.082,1.082,0,0,1,1.039.612l6.476,14.3h.062l4.032-13.564c.3-.733,1.223-.733,1.894-.733h2.383a.917.917,0,0,1,.917,1.4l-7.149,23.036a1.088,1.088,0,0,1-1.1.61h-.244a1.116,1.116,0,0,1-1.039-.55l-7.515-16.314h-.062l-7.454,16.314a1.016,1.016,0,0,1-.978.55h-.305a1.056,1.056,0,0,1-1.039-.61Z" fill="#fff"/>
        <path id="Path_1216" data-name="Path 1216" d="M6392.207,4652.528a1.2,1.2,0,0,1,1.161-1.161h1.772a.985.985,0,0,1,.977.733l.734,2.077a12.5,12.5,0,0,1,8.555-3.422c7.454,0,10.2,5.255,10.2,11.61v12.281a1.2,1.2,0,0,1-1.161,1.162h-3.484a1.162,1.162,0,0,1-1.161-1.162v-12.525c0-3.911-1.894-6.049-5.07-6.049-3.849,0-6.478,2.809-6.782,3.665v14.909c0,.795-.367,1.162-1.406,1.162h-3.178a1.2,1.2,0,0,1-1.161-1.162Z" fill="#fff"/>
        <path id="Path_1217" data-name="Path 1217" d="M6433.7,4650.755a11,11,0,0,1,11.242,11.3,14.983,14.983,0,0,1-.122,1.65,1.124,1.124,0,0,1-1.1,1.038H6427.1a7.075,7.075,0,0,0,7.027,6.538,10.427,10.427,0,0,0,5.439-1.772c.732-.427,1.161-.672,1.649-.061l1.711,2.322a.947.947,0,0,1-.123,1.588,14.035,14.035,0,0,1-9.043,3.056c-7.393,0-12.281-5.805-12.281-12.832C6421.478,4656.682,6426.366,4650.755,6433.7,4650.755Zm5.559,10.143a5.779,5.779,0,0,0-5.621-5.437,6.182,6.182,0,0,0-6.232,5.437Z" fill="#fff"/>
        <g id="Group_2242" data-name="Group 2242">
          <g id="Group_2241" data-name="Group 2241">
            <path id="Path_1218" data-name="Path 1218" d="M6377.172,4654.375a3.04,3.04,0,0,1,3.016-3.122,3.1,3.1,0,1,1,0,6.19A3.026,3.026,0,0,1,6377.172,4654.375Z" fill="#9e4f55"/>
            <path id="Path_1219" data-name="Path 1219" d="M6360.225,4684.72a12.639,12.639,0,0,1,12.342,12.77c0,7.027-5.5,12.892-12.342,12.892s-12.342-5.865-12.342-12.892A12.639,12.639,0,0,1,6360.225,4684.72Zm0,20.407c3.85,0,6.9-3.42,6.9-7.637a6.925,6.925,0,1,0-13.809,0C6353.321,4701.707,6356.376,4705.127,6360.225,4705.127Z" fill="#9e4f55"/>
            <path id="Path_1220" data-name="Path 1220" d="M6377.536,4664.725a1.2,1.2,0,0,1,1.161-1.161h3.544a1.2,1.2,0,0,1,1.161,1.161v21.34a14.69,14.69,0,0,1,5.865-1.345c6.782,0,12.037,5.683,12.037,12.831,0,7.027-4.949,12.831-11.426,12.831a10.921,10.921,0,0,1-7.76-3.421l-.488,1.771c-.184.612-.551,1.04-1.1,1.04H6378.7a1.2,1.2,0,0,1-1.161-1.161Zm11.608,40.4c3.911,0,6.478-3.482,6.478-7.576,0-4.155-2.873-7.515-6.966-7.515a10.453,10.453,0,0,0-5.316,1.4v10.021A6.573,6.573,0,0,0,6389.144,4705.127Z" fill="#9e4f55"/>
            <path id="Path_1221" data-name="Path 1221" d="M6404.867,4706.6l1.283-2.384a1.053,1.053,0,0,1,1.527-.305,12.666,12.666,0,0,0,5.682,1.588c1.833,0,2.994-.732,2.994-2.077,0-1.65-1.344-2.444-4.7-3.972-3.789-1.649-6.966-3.971-6.966-8,0-3.055,2.5-6.721,8.371-6.721a13.709,13.709,0,0,1,7.21,1.894,1.365,1.365,0,0,1,.489,1.772l-1.1,2.077a1.284,1.284,0,0,1-1.588.49,13.961,13.961,0,0,0-5.011-1.284c-2.078,0-2.75.917-2.75,1.833,0,1.588,1.528,2.261,3.911,3.3,4.461,1.955,8.126,3.849,8.126,8.432,0,3.788-3.6,7.148-9.042,7.148a12.823,12.823,0,0,1-8.066-2.5A1.028,1.028,0,0,1,6404.867,4706.6Z" fill="#9e4f55"/>
          </g>
        </g>
      </g>
      <text id="_" data-name="®" transform="translate(6427.236 4694.24)" fill="#9e4f55" font-size="15.01" font-family="BrandonGrotesque-Medium, Brandon Grotesque" font-weight="500"><tspan x="0" y="0">®</tspan></text>
    </g>
  </g>
</svg>
